G04 #@! TF.GenerationSoftware,KiCad,Pcbnew,7.0.8-7.0.8~ubuntu22.04.1*
G04 #@! TF.CreationDate,2023-10-06T16:41:22-07:00*
G04 #@! TF.ProjectId,feedbackController,66656564-6261-4636-9b43-6f6e74726f6c,rev?*
G04 #@! TF.SameCoordinates,Original*
G04 #@! TF.FileFunction,Soldermask,Top*
G04 #@! TF.FilePolarity,Negative*
%FSLAX46Y46*%
G04 Gerber Fmt 4.6, Leading zero omitted, Abs format (unit mm)*
G04 Created by KiCad (PCBNEW 7.0.8-7.0.8~ubuntu22.04.1) date 2023-10-06 16:41:22*
%MOMM*%
%LPD*%
G01*
G04 APERTURE LIST*
G04 Aperture macros list*
%AMRoundRect*
0 Rectangle with rounded corners*
0 $1 Rounding radius*
0 $2 $3 $4 $5 $6 $7 $8 $9 X,Y pos of 4 corners*
0 Add a 4 corners polygon primitive as box body*
4,1,4,$2,$3,$4,$5,$6,$7,$8,$9,$2,$3,0*
0 Add four circle primitives for the rounded corners*
1,1,$1+$1,$2,$3*
1,1,$1+$1,$4,$5*
1,1,$1+$1,$6,$7*
1,1,$1+$1,$8,$9*
0 Add four rect primitives between the rounded corners*
20,1,$1+$1,$2,$3,$4,$5,0*
20,1,$1+$1,$4,$5,$6,$7,0*
20,1,$1+$1,$6,$7,$8,$9,0*
20,1,$1+$1,$8,$9,$2,$3,0*%
G04 Aperture macros list end*
%ADD10RoundRect,0.250000X0.450000X-0.262500X0.450000X0.262500X-0.450000X0.262500X-0.450000X-0.262500X0*%
%ADD11RoundRect,0.250000X-0.250000X-0.475000X0.250000X-0.475000X0.250000X0.475000X-0.250000X0.475000X0*%
%ADD12RoundRect,0.250000X-0.262500X-0.450000X0.262500X-0.450000X0.262500X0.450000X-0.262500X0.450000X0*%
%ADD13RoundRect,0.250000X-0.475000X0.250000X-0.475000X-0.250000X0.475000X-0.250000X0.475000X0.250000X0*%
%ADD14RoundRect,0.250000X0.262500X0.450000X-0.262500X0.450000X-0.262500X-0.450000X0.262500X-0.450000X0*%
%ADD15RoundRect,0.250000X-0.450000X0.262500X-0.450000X-0.262500X0.450000X-0.262500X0.450000X0.262500X0*%
%ADD16RoundRect,0.250000X0.250000X-0.250000X0.250000X0.250000X-0.250000X0.250000X-0.250000X-0.250000X0*%
%ADD17RoundRect,0.250000X0.475000X-0.250000X0.475000X0.250000X-0.475000X0.250000X-0.475000X-0.250000X0*%
%ADD18R,0.650000X1.560000*%
%ADD19C,2.000000*%
%ADD20RoundRect,0.150000X-0.825000X-0.150000X0.825000X-0.150000X0.825000X0.150000X-0.825000X0.150000X0*%
%ADD21RoundRect,0.250000X0.250000X0.475000X-0.250000X0.475000X-0.250000X-0.475000X0.250000X-0.475000X0*%
%ADD22C,2.100000*%
%ADD23C,3.200000*%
%ADD24RoundRect,0.150000X-0.512500X-0.150000X0.512500X-0.150000X0.512500X0.150000X-0.512500X0.150000X0*%
%ADD25R,1.700000X1.700000*%
%ADD26O,1.700000X1.700000*%
%ADD27RoundRect,0.150000X-0.150000X0.825000X-0.150000X-0.825000X0.150000X-0.825000X0.150000X0.825000X0*%
%ADD28R,1.560000X0.650000*%
%ADD29C,1.524000*%
%ADD30O,2.500000X1.600000*%
%ADD31O,7.000000X3.500000*%
%ADD32RoundRect,0.250000X0.450000X-0.350000X0.450000X0.350000X-0.450000X0.350000X-0.450000X-0.350000X0*%
%ADD33R,1.400000X0.300000*%
%ADD34RoundRect,0.250000X0.350000X0.450000X-0.350000X0.450000X-0.350000X-0.450000X0.350000X-0.450000X0*%
%ADD35RoundRect,0.150000X0.512500X0.150000X-0.512500X0.150000X-0.512500X-0.150000X0.512500X-0.150000X0*%
%ADD36C,1.600000*%
%ADD37C,0.150000*%
G04 #@! TA.AperFunction,Profile*
%ADD38C,0.100000*%
G04 #@! TD*
G04 APERTURE END LIST*
D10*
X115000000Y-79000000D03*
X115000000Y-77175000D03*
D11*
X101450000Y-117850000D03*
X103350000Y-117850000D03*
D12*
X72087500Y-93500000D03*
X73912500Y-93500000D03*
D13*
X78500000Y-57100000D03*
X78500000Y-59000000D03*
D11*
X66050000Y-79385380D03*
X67950000Y-79385380D03*
D14*
X113000000Y-75000000D03*
X111175000Y-75000000D03*
D12*
X72175000Y-128500000D03*
X74000000Y-128500000D03*
D15*
X74000000Y-66087500D03*
X74000000Y-67912500D03*
D16*
X77500000Y-91500000D03*
X77500000Y-89000000D03*
D17*
X84500000Y-59000000D03*
X84500000Y-57100000D03*
D18*
X97500000Y-120700000D03*
X98450000Y-120700000D03*
X99400000Y-120700000D03*
X99400000Y-118000000D03*
X97500000Y-118000000D03*
D14*
X128500000Y-72000000D03*
X126675000Y-72000000D03*
X77825000Y-66000000D03*
X76000000Y-66000000D03*
X128500000Y-69500000D03*
X126675000Y-69500000D03*
D17*
X131500000Y-100560000D03*
X131500000Y-98660000D03*
D18*
X63600000Y-74085380D03*
X62650000Y-74085380D03*
X61700000Y-74085380D03*
X61700000Y-76785380D03*
X63600000Y-76785380D03*
D13*
X63000000Y-67600000D03*
X63000000Y-69500000D03*
D19*
X124000000Y-55000000D03*
D20*
X118525000Y-68690000D03*
X118525000Y-69960000D03*
X118525000Y-71230000D03*
X118525000Y-72500000D03*
X118525000Y-73770000D03*
X118525000Y-75040000D03*
X118525000Y-76310000D03*
X123475000Y-76310000D03*
X123475000Y-75040000D03*
X123475000Y-73770000D03*
X123475000Y-72500000D03*
X123475000Y-71230000D03*
X123475000Y-69960000D03*
X123475000Y-68690000D03*
D14*
X135500000Y-81000000D03*
X133675000Y-81000000D03*
D12*
X66500000Y-72885380D03*
X68325000Y-72885380D03*
D21*
X138500000Y-67000000D03*
X136600000Y-67000000D03*
D14*
X113000000Y-70000000D03*
X111175000Y-70000000D03*
D15*
X62500000Y-79045380D03*
X62500000Y-80870380D03*
D14*
X83500000Y-71000000D03*
X81675000Y-71000000D03*
D22*
X133350000Y-119380000D03*
D17*
X63500000Y-55900000D03*
X63500000Y-54000000D03*
D10*
X58587500Y-75710380D03*
X58587500Y-73885380D03*
D14*
X124650000Y-94000000D03*
X122825000Y-94000000D03*
D11*
X72100000Y-64000000D03*
X74000000Y-64000000D03*
D23*
X145000000Y-55000000D03*
D21*
X97400000Y-140000000D03*
X95500000Y-140000000D03*
D14*
X73912500Y-96000000D03*
X72087500Y-96000000D03*
D16*
X77500000Y-126250000D03*
X77500000Y-123750000D03*
D11*
X122750000Y-96500000D03*
X124650000Y-96500000D03*
D12*
X129675000Y-103000000D03*
X131500000Y-103000000D03*
D23*
X55000000Y-55000000D03*
D24*
X66000000Y-53500000D03*
X66000000Y-54450000D03*
X66000000Y-55400000D03*
X68275000Y-55400000D03*
X68275000Y-53500000D03*
D10*
X56000000Y-79710380D03*
X56000000Y-77885380D03*
X117000000Y-61500000D03*
X117000000Y-59675000D03*
D14*
X128500000Y-74500000D03*
X126675000Y-74500000D03*
D10*
X87500000Y-57500000D03*
X87500000Y-55675000D03*
D25*
X102500000Y-105000000D03*
D26*
X102500000Y-107540000D03*
D27*
X139380000Y-69660000D03*
X138110000Y-69660000D03*
X136840000Y-69660000D03*
X135570000Y-69660000D03*
X135570000Y-74610000D03*
X136840000Y-74610000D03*
X138110000Y-74610000D03*
X139380000Y-74610000D03*
D28*
X125500000Y-102950000D03*
X125500000Y-102000000D03*
X125500000Y-101050000D03*
X122800000Y-101050000D03*
X122800000Y-102950000D03*
D29*
X86000000Y-143000000D03*
X88540000Y-143000000D03*
X93620000Y-143000000D03*
X98700000Y-143000000D03*
D11*
X86100000Y-140000000D03*
X88000000Y-140000000D03*
D12*
X68175000Y-93500000D03*
X70000000Y-93500000D03*
D14*
X113000000Y-62500000D03*
X111175000Y-62500000D03*
D11*
X101500000Y-121350000D03*
X103400000Y-121350000D03*
D17*
X56000000Y-75785380D03*
X56000000Y-73885380D03*
D13*
X80500000Y-57100000D03*
X80500000Y-59000000D03*
D11*
X123500000Y-66500000D03*
X125400000Y-66500000D03*
D30*
X63080000Y-93420000D03*
D31*
X58000000Y-98500000D03*
D30*
X63080000Y-95960000D03*
D31*
X58000000Y-88340000D03*
D16*
X77500000Y-108750000D03*
X77500000Y-106250000D03*
D32*
X125825000Y-107000000D03*
X125825000Y-105000000D03*
D11*
X81000000Y-65500000D03*
X82900000Y-65500000D03*
D25*
X70920000Y-144500000D03*
D26*
X73460000Y-144500000D03*
X76000000Y-144500000D03*
D19*
X100000000Y-135000000D03*
D21*
X67900000Y-51500000D03*
X66000000Y-51500000D03*
D33*
X79300000Y-61000000D03*
X79300000Y-61500000D03*
X79300000Y-62000000D03*
X79300000Y-62500000D03*
X79300000Y-63000000D03*
X83700000Y-63000000D03*
X83700000Y-62500000D03*
X83700000Y-62000000D03*
X83700000Y-61500000D03*
X83700000Y-61000000D03*
D30*
X63080000Y-128420000D03*
D31*
X58000000Y-133500000D03*
D30*
X63080000Y-130960000D03*
D31*
X58000000Y-123340000D03*
D17*
X136000000Y-57000000D03*
X136000000Y-55100000D03*
D14*
X74000000Y-61000000D03*
X72175000Y-61000000D03*
D22*
X116840000Y-119380000D03*
D14*
X74000000Y-113500000D03*
X72175000Y-113500000D03*
D19*
X116000000Y-53500000D03*
D14*
X93912500Y-121000000D03*
X92087500Y-121000000D03*
D11*
X65950000Y-76885380D03*
X67850000Y-76885380D03*
D30*
X136920000Y-101080000D03*
D31*
X142000000Y-96000000D03*
D30*
X136920000Y-98540000D03*
D31*
X142000000Y-106160000D03*
D14*
X74000000Y-59000000D03*
X72175000Y-59000000D03*
D17*
X60500000Y-63500000D03*
X60500000Y-61600000D03*
D12*
X86675000Y-62500000D03*
X88500000Y-62500000D03*
D19*
X110000000Y-109000000D03*
D10*
X118500000Y-66825000D03*
X118500000Y-65000000D03*
D23*
X145000000Y-145000000D03*
D13*
X122650000Y-105000000D03*
X122650000Y-106900000D03*
D34*
X63500000Y-83045380D03*
X61500000Y-83045380D03*
D14*
X98000000Y-110000000D03*
X96175000Y-110000000D03*
X113000000Y-72500000D03*
X111175000Y-72500000D03*
X74000000Y-131000000D03*
X72175000Y-131000000D03*
D11*
X97550000Y-115500000D03*
X99450000Y-115500000D03*
D23*
X55000000Y-145000000D03*
D12*
X72087500Y-111000000D03*
X73912500Y-111000000D03*
D15*
X69500000Y-66175000D03*
X69500000Y-68000000D03*
D22*
X116840000Y-135890000D03*
D16*
X77500000Y-113500000D03*
X77500000Y-111000000D03*
D15*
X137500000Y-89087500D03*
X137500000Y-90912500D03*
X142500000Y-67175000D03*
X142500000Y-69000000D03*
D35*
X138637500Y-60950000D03*
X138637500Y-60000000D03*
X138637500Y-59050000D03*
X136362500Y-59050000D03*
X136362500Y-60950000D03*
D15*
X126500000Y-77175000D03*
X126500000Y-79000000D03*
D14*
X98000000Y-107500000D03*
X96175000Y-107500000D03*
D12*
X86675000Y-65500000D03*
X88500000Y-65500000D03*
D19*
X90500000Y-133500000D03*
D11*
X120500000Y-78500000D03*
X122400000Y-78500000D03*
D13*
X120150000Y-105100000D03*
X120150000Y-107000000D03*
D22*
X133350000Y-136000000D03*
D10*
X76000000Y-59000000D03*
X76000000Y-57175000D03*
D16*
X77500000Y-131000000D03*
X77500000Y-128500000D03*
D19*
X78500000Y-138000000D03*
D13*
X111500000Y-57600000D03*
X111500000Y-59500000D03*
D15*
X142500000Y-71000000D03*
X142500000Y-72825000D03*
D21*
X139500000Y-78000000D03*
X137600000Y-78000000D03*
D12*
X86675000Y-60000000D03*
X88500000Y-60000000D03*
D30*
X63080000Y-110920000D03*
D31*
X58000000Y-116000000D03*
D30*
X63080000Y-113460000D03*
D31*
X58000000Y-105840000D03*
D16*
X77500000Y-96000000D03*
X77500000Y-93500000D03*
D10*
X72000000Y-67912500D03*
X72000000Y-66087500D03*
D11*
X136550000Y-63000000D03*
X138450000Y-63000000D03*
D36*
X92300000Y-57460000D03*
X92300000Y-60000000D03*
X92300000Y-62540000D03*
X92300000Y-65080000D03*
X92300000Y-67620000D03*
X92300000Y-70160000D03*
X92300000Y-72700000D03*
X92300000Y-75240000D03*
X92300000Y-77780000D03*
X92300000Y-80320000D03*
X92300000Y-82860000D03*
X92300000Y-85400000D03*
X92300000Y-87940000D03*
X92300000Y-90480000D03*
X94840000Y-90480000D03*
X97380000Y-90480000D03*
X99920000Y-90480000D03*
X102460000Y-90480000D03*
X105000000Y-90480000D03*
X107540000Y-90480000D03*
X107540000Y-87940000D03*
X107540000Y-85400000D03*
X107540000Y-82860000D03*
X107540000Y-80320000D03*
X107540000Y-77780000D03*
X107540000Y-75240000D03*
X107540000Y-72700000D03*
X107540000Y-70160000D03*
X107540000Y-67620000D03*
X107540000Y-65080000D03*
X107540000Y-62540000D03*
X107540000Y-60000000D03*
X107540000Y-57460000D03*
X105000000Y-60000000D03*
X105000000Y-85400000D03*
X105000000Y-82860000D03*
X102460000Y-85400000D03*
X102460000Y-82860000D03*
X99920000Y-85400000D03*
X99920000Y-82860000D03*
X97380000Y-85400000D03*
X97380000Y-82860000D03*
X94840000Y-85400000D03*
X94840000Y-82860000D03*
D12*
X122825000Y-99000000D03*
X124650000Y-99000000D03*
D14*
X107825000Y-54000000D03*
X106000000Y-54000000D03*
D13*
X113500000Y-57600000D03*
X113500000Y-59500000D03*
D12*
X58175000Y-79385380D03*
X60000000Y-79385380D03*
D24*
X58362500Y-65650000D03*
X58362500Y-66600000D03*
X58362500Y-67550000D03*
X60637500Y-67550000D03*
X60637500Y-65650000D03*
D37*
X135450000Y-119380000D02*
G75*
G03*
X135450000Y-119380000I-2100000J0D01*
G01*
X148200000Y-55000000D02*
G75*
G03*
X148200000Y-55000000I-3200000J0D01*
G01*
X58200000Y-55000000D02*
G75*
G03*
X58200000Y-55000000I-3200000J0D01*
G01*
X118940000Y-119380000D02*
G75*
G03*
X118940000Y-119380000I-2100000J0D01*
G01*
X148200000Y-145000000D02*
G75*
G03*
X148200000Y-145000000I-3200000J0D01*
G01*
X58200000Y-145000000D02*
G75*
G03*
X58200000Y-145000000I-3200000J0D01*
G01*
X118940000Y-135890000D02*
G75*
G03*
X118940000Y-135890000I-2100000J0D01*
G01*
X135450000Y-136000000D02*
G75*
G03*
X135450000Y-136000000I-2100000J0D01*
G01*
D38*
X150000000Y-50000000D02*
X50000000Y-50000000D01*
X50000000Y-50000000D02*
X50000000Y-150000000D01*
X150000000Y-150000000D02*
X150000000Y-50000000D01*
X50000000Y-150000000D02*
X150000000Y-150000000D01*
M02*
