G04 #@! TF.GenerationSoftware,KiCad,Pcbnew,7.0.8-7.0.8~ubuntu22.04.1*
G04 #@! TF.CreationDate,2023-10-06T16:41:22-07:00*
G04 #@! TF.ProjectId,feedbackController,66656564-6261-4636-9b43-6f6e74726f6c,rev?*
G04 #@! TF.SameCoordinates,Original*
G04 #@! TF.FileFunction,Soldermask,Bot*
G04 #@! TF.FilePolarity,Negative*
%FSLAX46Y46*%
G04 Gerber Fmt 4.6, Leading zero omitted, Abs format (unit mm)*
G04 Created by KiCad (PCBNEW 7.0.8-7.0.8~ubuntu22.04.1) date 2023-10-06 16:41:22*
%MOMM*%
%LPD*%
G01*
G04 APERTURE LIST*
%ADD10C,2.000000*%
%ADD11C,2.100000*%
%ADD12C,3.200000*%
%ADD13R,1.700000X1.700000*%
%ADD14O,1.700000X1.700000*%
%ADD15C,1.524000*%
%ADD16O,2.500000X1.600000*%
%ADD17O,7.000000X3.500000*%
%ADD18C,1.600000*%
%ADD19R,1.500000X1.000000*%
%ADD20R,1.000000X1.500000*%
%ADD21C,0.150000*%
G04 #@! TA.AperFunction,Profile*
%ADD22C,0.100000*%
G04 #@! TD*
G04 APERTURE END LIST*
D10*
X124000000Y-55000000D03*
D11*
X133350000Y-119380000D03*
D12*
X145000000Y-55000000D03*
X55000000Y-55000000D03*
D13*
X102500000Y-105000000D03*
D14*
X102500000Y-107540000D03*
D15*
X86000000Y-143000000D03*
X88540000Y-143000000D03*
X93620000Y-143000000D03*
X98700000Y-143000000D03*
D16*
X63080000Y-93420000D03*
D17*
X58000000Y-98500000D03*
D16*
X63080000Y-95960000D03*
D17*
X58000000Y-88340000D03*
D13*
X70920000Y-144500000D03*
D14*
X73460000Y-144500000D03*
X76000000Y-144500000D03*
D10*
X100000000Y-135000000D03*
D16*
X63080000Y-128420000D03*
D17*
X58000000Y-133500000D03*
D16*
X63080000Y-130960000D03*
D17*
X58000000Y-123340000D03*
D11*
X116840000Y-119380000D03*
D10*
X116000000Y-53500000D03*
D16*
X136920000Y-101080000D03*
D17*
X142000000Y-96000000D03*
D16*
X136920000Y-98540000D03*
D17*
X142000000Y-106160000D03*
D10*
X110000000Y-109000000D03*
D12*
X145000000Y-145000000D03*
X55000000Y-145000000D03*
D11*
X116840000Y-135890000D03*
D10*
X90500000Y-133500000D03*
D11*
X133350000Y-136000000D03*
D10*
X78500000Y-138000000D03*
D16*
X63080000Y-110920000D03*
D17*
X58000000Y-116000000D03*
D16*
X63080000Y-113460000D03*
D17*
X58000000Y-105840000D03*
D18*
X92300000Y-57460000D03*
X92300000Y-60000000D03*
X92300000Y-62540000D03*
X92300000Y-65080000D03*
X92300000Y-67620000D03*
X92300000Y-70160000D03*
X92300000Y-72700000D03*
X92300000Y-75240000D03*
X92300000Y-77780000D03*
X92300000Y-80320000D03*
X92300000Y-82860000D03*
X92300000Y-85400000D03*
X92300000Y-87940000D03*
X92300000Y-90480000D03*
X94840000Y-90480000D03*
X97380000Y-90480000D03*
X99920000Y-90480000D03*
X102460000Y-90480000D03*
X105000000Y-90480000D03*
X107540000Y-90480000D03*
X107540000Y-87940000D03*
X107540000Y-85400000D03*
X107540000Y-82860000D03*
X107540000Y-80320000D03*
X107540000Y-77780000D03*
X107540000Y-75240000D03*
X107540000Y-72700000D03*
X107540000Y-70160000D03*
X107540000Y-67620000D03*
X107540000Y-65080000D03*
X107540000Y-62540000D03*
X107540000Y-60000000D03*
X107540000Y-57460000D03*
X105000000Y-60000000D03*
X105000000Y-85400000D03*
X105000000Y-82860000D03*
X102460000Y-85400000D03*
X102460000Y-82860000D03*
X99920000Y-85400000D03*
X99920000Y-82860000D03*
X97380000Y-85400000D03*
X97380000Y-82860000D03*
X94840000Y-85400000D03*
X94840000Y-82860000D03*
D19*
X89500000Y-93000000D03*
X89500000Y-94300000D03*
D20*
X137300000Y-72000000D03*
X138600000Y-72000000D03*
X83200000Y-62100000D03*
X81900000Y-62100000D03*
D21*
X135450000Y-119380000D02*
G75*
G03*
X135450000Y-119380000I-2100000J0D01*
G01*
X148200000Y-55000000D02*
G75*
G03*
X148200000Y-55000000I-3200000J0D01*
G01*
X58200000Y-55000000D02*
G75*
G03*
X58200000Y-55000000I-3200000J0D01*
G01*
X118940000Y-119380000D02*
G75*
G03*
X118940000Y-119380000I-2100000J0D01*
G01*
X148200000Y-145000000D02*
G75*
G03*
X148200000Y-145000000I-3200000J0D01*
G01*
X58200000Y-145000000D02*
G75*
G03*
X58200000Y-145000000I-3200000J0D01*
G01*
X118940000Y-135890000D02*
G75*
G03*
X118940000Y-135890000I-2100000J0D01*
G01*
X135450000Y-136000000D02*
G75*
G03*
X135450000Y-136000000I-2100000J0D01*
G01*
D22*
X150000000Y-50000000D02*
X50000000Y-50000000D01*
X50000000Y-50000000D02*
X50000000Y-150000000D01*
X150000000Y-150000000D02*
X150000000Y-50000000D01*
X50000000Y-150000000D02*
X150000000Y-150000000D01*
M02*
