M48
; DRILL file {KiCad 7.0.8-7.0.8~ubuntu22.04.1} date Fri 06 Oct 2023 04:41:18 PM
; FORMAT={-:-/ absolute / metric / decimal}
; #@! TF.CreationDate,2023-10-06T16:41:18-07:00
; #@! TF.GenerationSoftware,Kicad,Pcbnew,7.0.8-7.0.8~ubuntu22.04.1
; #@! TF.FileFunction,Plated,1,2,PTH
FMAT,2
METRIC
; #@! TA.AperFunction,Plated,PTH,ViaDrill
T1C0.300
; #@! TA.AperFunction,Plated,PTH,ViaDrill
T2C0.500
; #@! TA.AperFunction,Plated,PTH,ComponentDrill
T3C0.762
; #@! TA.AperFunction,Plated,PTH,ComponentDrill
T4C0.890
; #@! TA.AperFunction,Plated,PTH,ComponentDrill
T5C1.000
; #@! TA.AperFunction,Plated,PTH,ComponentDrill
T6C1.100
; #@! TA.AperFunction,Plated,PTH,ComponentDrill
T7C2.010
%
G90
G05
T1
X56.0Y-81.045
X62.0Y-61.0
X62.0Y-72.5
X63.0Y-71.0
X64.0Y-52.0
X78.0Y-67.5
X79.5Y-56.0
X85.0Y-56.0
X85.0Y-66.0
X95.502Y-79.0
X95.992Y-92.5
X96.0Y-98.5
X96.0Y-105.0
X96.09Y-88.09
X124.0Y-107.0
X124.5Y-81.0
X125.0Y-65.0
X126.0Y-94.0
X127.5Y-102.0
X129.5Y-98.5
X135.5Y-78.0
X138.0Y-55.5
X138.5Y-64.5
X140.5Y-67.0
T2
X79.0Y-118.0
X80.0Y-71.0
X85.0Y-71.0
X85.0Y-91.5
X94.0Y-118.0
X98.5Y-93.0
X98.564Y-79.5
X101.5Y-116.0
X102.5Y-92.0
X116.5Y-78.0
T3
X86.0Y-143.0
X88.54Y-143.0
X93.62Y-143.0
X98.7Y-143.0
T4
X63.08Y-93.42
X63.08Y-95.96
X63.08Y-110.92
X63.08Y-113.46
X63.08Y-128.42
X63.08Y-130.96
X136.92Y-98.54
X136.92Y-101.08
T5
X70.92Y-144.5
X73.46Y-144.5
X76.0Y-144.5
X78.5Y-138.0
X90.5Y-133.5
X100.0Y-135.0
X102.5Y-105.0
X102.5Y-107.54
X110.0Y-109.0
X116.0Y-53.5
X124.0Y-55.0
T6
X92.3Y-57.46
X92.3Y-60.0
X92.3Y-62.54
X92.3Y-65.08
X92.3Y-67.62
X92.3Y-70.16
X92.3Y-72.7
X92.3Y-75.24
X92.3Y-77.78
X92.3Y-80.32
X92.3Y-82.86
X92.3Y-85.4
X92.3Y-87.94
X92.3Y-90.48
X94.84Y-82.86
X94.84Y-85.4
X94.84Y-90.48
X97.38Y-82.86
X97.38Y-85.4
X97.38Y-90.48
X99.92Y-82.86
X99.92Y-85.4
X99.92Y-90.48
X102.46Y-82.86
X102.46Y-85.4
X102.46Y-90.48
X105.0Y-60.0
X105.0Y-82.86
X105.0Y-85.4
X105.0Y-90.48
X107.54Y-57.46
X107.54Y-60.0
X107.54Y-62.54
X107.54Y-65.08
X107.54Y-67.62
X107.54Y-70.16
X107.54Y-72.7
X107.54Y-75.24
X107.54Y-77.78
X107.54Y-80.32
X107.54Y-82.86
X107.54Y-85.4
X107.54Y-87.94
X107.54Y-90.48
T7
X58.0Y-88.34
X58.0Y-98.5
X58.0Y-105.84
X58.0Y-116.0
X58.0Y-123.34
X58.0Y-133.5
X142.0Y-96.0
X142.0Y-106.16
T0
M30
