%TF.GenerationSoftware,KiCad,Pcbnew,6.0.2+dfsg-1*%
%TF.CreationDate,2023-03-31T17:06:10+02:00*%
%TF.ProjectId,feedbackController,66656564-6261-4636-9b43-6f6e74726f6c,rev?*%
%TF.SameCoordinates,Original*%
%TF.FileFunction,Soldermask,Bot*%
%TF.FilePolarity,Negative*%
%FSLAX46Y46*%
G04 Gerber Fmt 4.6, Leading zero omitted, Abs format (unit mm)*
G04 Created by KiCad (PCBNEW 6.0.2+dfsg-1) date 2023-03-31 17:06:10*
%MOMM*%
%LPD*%
G01*
G04 APERTURE LIST*
%ADD10R,1.700000X1.700000*%
%ADD11O,1.700000X1.700000*%
%ADD12O,2.500000X1.600000*%
%ADD13O,7.000000X3.500000*%
%ADD14C,3.600000*%
%ADD15C,2.100000*%
%ADD16C,3.200000*%
%ADD17R,1.600000X1.600000*%
%ADD18C,1.600000*%
%ADD19R,1.300000X1.300000*%
%ADD20C,1.300000*%
G04 APERTURE END LIST*
D10*
%TO.C,J6*%
X157480000Y-104140000D03*
D11*
X157480000Y-106680000D03*
%TD*%
D12*
%TO.C,J1*%
X89210000Y-116840000D03*
D13*
X84130000Y-121920000D03*
X84130000Y-111760000D03*
D12*
X89210000Y-119380000D03*
%TD*%
D14*
%TO.C,TP1*%
X156210000Y-58420000D03*
%TD*%
%TO.C,TP4*%
X162560000Y-62230000D03*
%TD*%
D15*
%TO.C,H1*%
X165100000Y-115570000D03*
%TD*%
D16*
%TO.C,H6*%
X195580000Y-58420000D03*
%TD*%
%TO.C,H5*%
X83820000Y-58420000D03*
%TD*%
D12*
%TO.C,J2*%
X89210000Y-76200000D03*
D13*
X84130000Y-71120000D03*
D12*
X89210000Y-78740000D03*
D13*
X84130000Y-81280000D03*
%TD*%
D16*
%TO.C,H8*%
X195580000Y-144780000D03*
%TD*%
D14*
%TO.C,TP2*%
X156210000Y-66040000D03*
%TD*%
D15*
%TO.C,H4*%
X181610000Y-132080000D03*
%TD*%
%TO.C,H3*%
X165100000Y-132080000D03*
%TD*%
D12*
%TO.C,J4*%
X190190000Y-78740000D03*
D13*
X195270000Y-83820000D03*
X195270000Y-73660000D03*
D12*
X190190000Y-76200000D03*
%TD*%
D14*
%TO.C,TP3*%
X162560000Y-53975000D03*
%TD*%
D15*
%TO.C,H2*%
X181610000Y-115570000D03*
%TD*%
D12*
%TO.C,J3*%
X89210000Y-96520000D03*
D13*
X84130000Y-91440000D03*
D12*
X89210000Y-99060000D03*
D13*
X84130000Y-101600000D03*
%TD*%
D16*
%TO.C,H7*%
X83820000Y-144780000D03*
%TD*%
D10*
%TO.C,J5*%
X107330000Y-55220000D03*
D11*
X109870000Y-55220000D03*
X112410000Y-55220000D03*
%TD*%
D17*
%TO.C,U2*%
X123190000Y-54610000D03*
D18*
X123190000Y-57150000D03*
X123190000Y-59690000D03*
X123190000Y-62230000D03*
X123190000Y-64770000D03*
X123190000Y-67310000D03*
X123190000Y-69850000D03*
X123190000Y-72390000D03*
X123190000Y-74930000D03*
X123190000Y-77470000D03*
X123190000Y-80010000D03*
X123190000Y-82550000D03*
X123190000Y-85090000D03*
X123190000Y-87630000D03*
X123190000Y-90170000D03*
X123190000Y-92710000D03*
X123190000Y-95250000D03*
X123190000Y-97790000D03*
X123190000Y-100330000D03*
X123190000Y-102870000D03*
X123190000Y-105410000D03*
X123190000Y-107950000D03*
X123190000Y-110490000D03*
X123190000Y-113030000D03*
X138430000Y-113030000D03*
X138430000Y-110490000D03*
X138430000Y-107950000D03*
X138430000Y-105410000D03*
X138430000Y-102870000D03*
X138430000Y-100330000D03*
X138430000Y-97790000D03*
X138430000Y-95250000D03*
X138430000Y-92710000D03*
X138430000Y-90170000D03*
X138430000Y-87630000D03*
X138430000Y-85090000D03*
X138430000Y-82550000D03*
X138430000Y-80010000D03*
X138430000Y-77470000D03*
X138430000Y-74930000D03*
X138430000Y-72390000D03*
X138430000Y-69850000D03*
X138430000Y-67310000D03*
X138430000Y-64770000D03*
X138430000Y-62230000D03*
X138430000Y-59690000D03*
X138430000Y-57150000D03*
X138430000Y-54610000D03*
X135890000Y-57150000D03*
X125730000Y-100330000D03*
X128270000Y-100330000D03*
X130810000Y-100330000D03*
X133350000Y-100330000D03*
X135890000Y-100330000D03*
D17*
X126240800Y-60909200D03*
D18*
X126240800Y-63449200D03*
X126240800Y-65989200D03*
X126240800Y-68529200D03*
X126240800Y-71069200D03*
D19*
X135991600Y-67580000D03*
D20*
X133991600Y-67580000D03*
X131991600Y-67580000D03*
X131991600Y-69580000D03*
X133991600Y-69580000D03*
X135991600Y-69580000D03*
X132080000Y-55340000D03*
X129540000Y-55340000D03*
%TD*%
M02*
