M48
; DRILL file {KiCad 6.0.2+dfsg-1} date Fri 31 Mar 2023 05:06:05 PM
; FORMAT={-:-/ absolute / inch / decimal}
; #@! TF.CreationDate,2023-03-31T17:06:05+02:00
; #@! TF.GenerationSoftware,Kicad,Pcbnew,6.0.2+dfsg-1
; #@! TF.FileFunction,Plated,1,2,PTH
FMAT,2
INCH
; #@! TA.AperFunction,Plated,PTH,ViaDrill
T1C0.0118
; #@! TA.AperFunction,Plated,PTH,ViaDrill
T2C0.0197
; #@! TA.AperFunction,Plated,PTH,ComponentDrill
T3C0.0315
; #@! TA.AperFunction,Plated,PTH,ComponentDrill
T4C0.0350
; #@! TA.AperFunction,Plated,PTH,ViaDrill
T5C0.0394
; #@! TA.AperFunction,Plated,PTH,ComponentDrill
T6C0.0394
; #@! TA.AperFunction,Plated,PTH,ComponentDrill
T7C0.0433
; #@! TA.AperFunction,Plated,PTH,ComponentDrill
T8C0.0787
; #@! TA.AperFunction,Plated,PTH,ComponentDrill
T9C0.0791
%
G90
G05
T1
X4.24Y-4.8
X4.24Y-4.95
X4.65Y-2.425
X4.65Y-4.6
X4.75Y-5.125
X4.75Y-5.325
X4.875Y-4.7
X4.925Y-4.325
X4.975Y-4.45
X4.975Y-4.7
X6.325Y-2.95
X6.325Y-3.35
T2
X4.49Y-4.82
X4.725Y-2.25
X4.725Y-3.575
X4.725Y-4.55
X5.65Y-2.625
X5.65Y-3.125
X5.65Y-4.275
X5.65Y-4.55
X5.8Y-2.05
X5.8Y-2.4
X5.8Y-2.95
X5.8Y-4.45
X5.8Y-5.325
T3
X5.1Y-2.1787
X5.1965Y-2.6606
X5.1965Y-2.7394
X5.2Y-2.1787
X5.2753Y-2.6606
X5.2753Y-2.7394
X5.354Y-2.6606
X5.354Y-2.7394
T4
X3.5122Y-3.0
X3.5122Y-3.1
X3.5122Y-3.8
X3.5122Y-3.9
X3.5122Y-4.6
X3.5122Y-4.7
X7.4878Y-3.0
X7.4878Y-3.1
T5
X4.575Y-3.9
X4.575Y-4.6
X5.0Y-5.025
X5.0Y-5.225
X5.5Y-5.0
X5.5Y-5.225
X5.875Y-2.725
X5.875Y-3.6
X5.95Y-2.325
X5.95Y-2.5
X5.95Y-2.85
X5.95Y-4.1
X5.95Y-5.225
T6
X4.2256Y-2.174
X4.3256Y-2.174
X4.4256Y-2.174
X6.2Y-4.1
X6.2Y-4.2
T7
X4.85Y-2.15
X4.85Y-2.25
X4.85Y-2.35
X4.85Y-2.45
X4.85Y-2.55
X4.85Y-2.65
X4.85Y-2.75
X4.85Y-2.85
X4.85Y-2.95
X4.85Y-3.05
X4.85Y-3.15
X4.85Y-3.25
X4.85Y-3.35
X4.85Y-3.45
X4.85Y-3.55
X4.85Y-3.65
X4.85Y-3.75
X4.85Y-3.85
X4.85Y-3.95
X4.85Y-4.05
X4.85Y-4.15
X4.85Y-4.25
X4.85Y-4.35
X4.85Y-4.45
X4.95Y-3.95
X4.9701Y-2.398
X4.9701Y-2.498
X4.9701Y-2.598
X4.9701Y-2.698
X4.9701Y-2.798
X5.05Y-3.95
X5.15Y-3.95
X5.25Y-3.95
X5.35Y-2.25
X5.35Y-3.95
X5.45Y-2.15
X5.45Y-2.25
X5.45Y-2.35
X5.45Y-2.45
X5.45Y-2.55
X5.45Y-2.65
X5.45Y-2.75
X5.45Y-2.85
X5.45Y-2.95
X5.45Y-3.05
X5.45Y-3.15
X5.45Y-3.25
X5.45Y-3.35
X5.45Y-3.45
X5.45Y-3.55
X5.45Y-3.65
X5.45Y-3.75
X5.45Y-3.85
X5.45Y-3.95
X5.45Y-4.05
X5.45Y-4.15
X5.45Y-4.25
X5.45Y-4.35
X5.45Y-4.45
T8
X6.15Y-2.3
X6.15Y-2.6
X6.4Y-2.125
X6.4Y-2.45
T9
X3.3122Y-2.8
X3.3122Y-3.2
X3.3122Y-3.6
X3.3122Y-4.0
X3.3122Y-4.4
X3.3122Y-4.8
X7.6878Y-2.9
X7.6878Y-3.3
T0
M30
