%TF.GenerationSoftware,KiCad,Pcbnew,6.0.2+dfsg-1*%
%TF.CreationDate,2023-03-31T17:06:10+02:00*%
%TF.ProjectId,feedbackController,66656564-6261-4636-9b43-6f6e74726f6c,rev?*%
%TF.SameCoordinates,Original*%
%TF.FileFunction,Soldermask,Top*%
%TF.FilePolarity,Negative*%
%FSLAX46Y46*%
G04 Gerber Fmt 4.6, Leading zero omitted, Abs format (unit mm)*
G04 Created by KiCad (PCBNEW 6.0.2+dfsg-1) date 2023-03-31 17:06:10*
%MOMM*%
%LPD*%
G01*
G04 APERTURE LIST*
G04 Aperture macros list*
%AMRoundRect*
0 Rectangle with rounded corners*
0 $1 Rounding radius*
0 $2 $3 $4 $5 $6 $7 $8 $9 X,Y pos of 4 corners*
0 Add a 4 corners polygon primitive as box body*
4,1,4,$2,$3,$4,$5,$6,$7,$8,$9,$2,$3,0*
0 Add four circle primitives for the rounded corners*
1,1,$1+$1,$2,$3*
1,1,$1+$1,$4,$5*
1,1,$1+$1,$6,$7*
1,1,$1+$1,$8,$9*
0 Add four rect primitives between the rounded corners*
20,1,$1+$1,$2,$3,$4,$5,0*
20,1,$1+$1,$4,$5,$6,$7,0*
20,1,$1+$1,$6,$7,$8,$9,0*
20,1,$1+$1,$8,$9,$2,$3,0*%
G04 Aperture macros list end*
%ADD10RoundRect,0.250000X-0.262500X-0.450000X0.262500X-0.450000X0.262500X0.450000X-0.262500X0.450000X0*%
%ADD11R,1.700000X1.700000*%
%ADD12O,1.700000X1.700000*%
%ADD13O,2.500000X1.600000*%
%ADD14O,7.000000X3.500000*%
%ADD15C,3.600000*%
%ADD16R,1.000000X1.000000*%
%ADD17C,2.100000*%
%ADD18RoundRect,0.250000X-0.250000X-0.475000X0.250000X-0.475000X0.250000X0.475000X-0.250000X0.475000X0*%
%ADD19C,3.200000*%
%ADD20RoundRect,0.250000X0.450000X-0.262500X0.450000X0.262500X-0.450000X0.262500X-0.450000X-0.262500X0*%
%ADD21RoundRect,0.250000X-0.450000X0.262500X-0.450000X-0.262500X0.450000X-0.262500X0.450000X0.262500X0*%
%ADD22RoundRect,0.250000X-0.475000X0.250000X-0.475000X-0.250000X0.475000X-0.250000X0.475000X0.250000X0*%
%ADD23RoundRect,0.250000X0.250000X0.475000X-0.250000X0.475000X-0.250000X-0.475000X0.250000X-0.475000X0*%
%ADD24RoundRect,0.250000X0.262500X0.450000X-0.262500X0.450000X-0.262500X-0.450000X0.262500X-0.450000X0*%
%ADD25RoundRect,0.250000X0.475000X-0.250000X0.475000X0.250000X-0.475000X0.250000X-0.475000X-0.250000X0*%
%ADD26RoundRect,0.150000X-0.512500X-0.150000X0.512500X-0.150000X0.512500X0.150000X-0.512500X0.150000X0*%
%ADD27RoundRect,0.150000X0.750000X0.150000X-0.750000X0.150000X-0.750000X-0.150000X0.750000X-0.150000X0*%
%ADD28R,0.300000X1.400000*%
%ADD29R,1.600000X1.600000*%
%ADD30C,1.600000*%
%ADD31R,1.300000X1.300000*%
%ADD32C,1.300000*%
G04 APERTURE END LIST*
D10*
%TO.C,R21*%
X124817500Y-135382000D03*
X126642500Y-135382000D03*
%TD*%
D11*
%TO.C,J6*%
X157480000Y-104140000D03*
D12*
X157480000Y-106680000D03*
%TD*%
D10*
%TO.C,R11*%
X177875000Y-83820000D03*
X179700000Y-83820000D03*
%TD*%
D13*
%TO.C,J1*%
X89210000Y-116840000D03*
D14*
X84130000Y-121920000D03*
X84130000Y-111760000D03*
D13*
X89210000Y-119380000D03*
%TD*%
D15*
%TO.C,TP1*%
X156210000Y-58420000D03*
%TD*%
%TO.C,TP4*%
X162560000Y-62230000D03*
%TD*%
D16*
%TO.C,D1*%
X109855000Y-78500000D03*
X109855000Y-76000000D03*
%TD*%
D17*
%TO.C,H1*%
X165100000Y-115570000D03*
%TD*%
D10*
%TO.C,R10*%
X143590000Y-63500000D03*
X145415000Y-63500000D03*
%TD*%
D18*
%TO.C,C2*%
X118750000Y-127635000D03*
X120650000Y-127635000D03*
%TD*%
D19*
%TO.C,H6*%
X195580000Y-58420000D03*
%TD*%
D20*
%TO.C,R8*%
X100965000Y-113030000D03*
X100965000Y-111205000D03*
%TD*%
D18*
%TO.C,C10*%
X143510000Y-56769000D03*
X145410000Y-56769000D03*
%TD*%
D16*
%TO.C,D3*%
X109220000Y-98820000D03*
X109220000Y-96320000D03*
%TD*%
D10*
%TO.C,R9*%
X82907500Y-106680000D03*
X84732500Y-106680000D03*
%TD*%
%TO.C,R3*%
X98147500Y-96520000D03*
X99972500Y-96520000D03*
%TD*%
%TO.C,R17*%
X146050000Y-85090000D03*
X147875000Y-85090000D03*
%TD*%
D19*
%TO.C,H5*%
X83820000Y-58420000D03*
%TD*%
D21*
%TO.C,R4*%
X104140000Y-96520000D03*
X104140000Y-98345000D03*
%TD*%
D22*
%TO.C,C1*%
X97790000Y-121920000D03*
X97790000Y-123820000D03*
%TD*%
D16*
%TO.C,D5*%
X111760000Y-114540000D03*
X111760000Y-117040000D03*
%TD*%
D18*
%TO.C,C9*%
X143510000Y-53975000D03*
X145410000Y-53975000D03*
%TD*%
D22*
%TO.C,C11*%
X183515000Y-76200000D03*
X183515000Y-78100000D03*
%TD*%
D23*
%TO.C,C7*%
X145095000Y-130175000D03*
X143195000Y-130175000D03*
%TD*%
D10*
%TO.C,R1*%
X97790000Y-76200000D03*
X99615000Y-76200000D03*
%TD*%
D13*
%TO.C,J2*%
X89210000Y-76200000D03*
D14*
X84130000Y-71120000D03*
D13*
X89210000Y-78740000D03*
D14*
X84130000Y-81280000D03*
%TD*%
D20*
%TO.C,R7*%
X97790000Y-118665000D03*
X97790000Y-116840000D03*
%TD*%
D10*
%TO.C,R20*%
X143510000Y-60960000D03*
X145335000Y-60960000D03*
%TD*%
%TO.C,R5*%
X101322500Y-116840000D03*
X103147500Y-116840000D03*
%TD*%
D24*
%TO.C,R13*%
X152042500Y-108585000D03*
X150217500Y-108585000D03*
%TD*%
%TO.C,R14*%
X152042500Y-113030000D03*
X150217500Y-113030000D03*
%TD*%
D25*
%TO.C,C8*%
X160655000Y-79375000D03*
X160655000Y-77475000D03*
%TD*%
D16*
%TO.C,D2*%
X109220000Y-93960000D03*
X109220000Y-91460000D03*
%TD*%
D10*
%TO.C,R22*%
X130659500Y-130302000D03*
X132484500Y-130302000D03*
%TD*%
D19*
%TO.C,H8*%
X195580000Y-144780000D03*
%TD*%
D15*
%TO.C,TP2*%
X156210000Y-66040000D03*
%TD*%
D10*
%TO.C,R18*%
X95330000Y-127635000D03*
X97155000Y-127635000D03*
%TD*%
D17*
%TO.C,H4*%
X181610000Y-132080000D03*
%TD*%
%TO.C,H3*%
X165100000Y-132080000D03*
%TD*%
D13*
%TO.C,J4*%
X190190000Y-78740000D03*
D14*
X195270000Y-83820000D03*
X195270000Y-73660000D03*
D13*
X190190000Y-76200000D03*
%TD*%
D24*
%TO.C,R12*%
X179700000Y-78740000D03*
X177875000Y-78740000D03*
%TD*%
D25*
%TO.C,C5*%
X179705000Y-76515000D03*
X179705000Y-74615000D03*
%TD*%
D16*
%TO.C,D6*%
X109855000Y-73640000D03*
X109855000Y-71140000D03*
%TD*%
D15*
%TO.C,TP3*%
X162560000Y-53975000D03*
%TD*%
D17*
%TO.C,H2*%
X181610000Y-115570000D03*
%TD*%
D24*
%TO.C,R16*%
X155575000Y-79375000D03*
X153750000Y-79375000D03*
%TD*%
D13*
%TO.C,J3*%
X89210000Y-96520000D03*
D14*
X84130000Y-91440000D03*
D13*
X89210000Y-99060000D03*
D14*
X84130000Y-101600000D03*
%TD*%
D19*
%TO.C,H7*%
X83820000Y-144780000D03*
%TD*%
D26*
%TO.C,U4*%
X143007500Y-124780000D03*
X143007500Y-125730000D03*
X143007500Y-126680000D03*
X145282500Y-126680000D03*
X145282500Y-124780000D03*
%TD*%
D16*
%TO.C,D4*%
X111760000Y-119180000D03*
X111760000Y-121680000D03*
%TD*%
D25*
%TO.C,C4*%
X120396000Y-122555000D03*
X120396000Y-120655000D03*
%TD*%
D11*
%TO.C,J5*%
X107330000Y-55220000D03*
D12*
X109870000Y-55220000D03*
X112410000Y-55220000D03*
%TD*%
D20*
%TO.C,R6*%
X106680000Y-116840000D03*
X106680000Y-115015000D03*
%TD*%
D22*
%TO.C,C6*%
X139832500Y-122240000D03*
X139832500Y-124140000D03*
%TD*%
D21*
%TO.C,R2*%
X104140000Y-76200000D03*
X104140000Y-78025000D03*
%TD*%
D27*
%TO.C,U3*%
X174870000Y-78740000D03*
X174870000Y-77470000D03*
X174870000Y-76200000D03*
X174870000Y-74930000D03*
X164220000Y-74930000D03*
X164220000Y-76200000D03*
X164220000Y-77470000D03*
X164220000Y-78740000D03*
%TD*%
D22*
%TO.C,C3*%
X123825000Y-130495000D03*
X123825000Y-132395000D03*
%TD*%
D24*
%TO.C,R23*%
X118006500Y-122428000D03*
X116181500Y-122428000D03*
%TD*%
D10*
%TO.C,R19*%
X146050000Y-87630000D03*
X147875000Y-87630000D03*
%TD*%
D28*
%TO.C,U1*%
X123460000Y-127295000D03*
X123960000Y-127295000D03*
X124460000Y-127295000D03*
X124960000Y-127295000D03*
X125460000Y-127295000D03*
X125460000Y-122895000D03*
X124960000Y-122895000D03*
X124460000Y-122895000D03*
X123960000Y-122895000D03*
X123460000Y-122895000D03*
%TD*%
D29*
%TO.C,U2*%
X123190000Y-54610000D03*
D30*
X123190000Y-57150000D03*
X123190000Y-59690000D03*
X123190000Y-62230000D03*
X123190000Y-64770000D03*
X123190000Y-67310000D03*
X123190000Y-69850000D03*
X123190000Y-72390000D03*
X123190000Y-74930000D03*
X123190000Y-77470000D03*
X123190000Y-80010000D03*
X123190000Y-82550000D03*
X123190000Y-85090000D03*
X123190000Y-87630000D03*
X123190000Y-90170000D03*
X123190000Y-92710000D03*
X123190000Y-95250000D03*
X123190000Y-97790000D03*
X123190000Y-100330000D03*
X123190000Y-102870000D03*
X123190000Y-105410000D03*
X123190000Y-107950000D03*
X123190000Y-110490000D03*
X123190000Y-113030000D03*
X138430000Y-113030000D03*
X138430000Y-110490000D03*
X138430000Y-107950000D03*
X138430000Y-105410000D03*
X138430000Y-102870000D03*
X138430000Y-100330000D03*
X138430000Y-97790000D03*
X138430000Y-95250000D03*
X138430000Y-92710000D03*
X138430000Y-90170000D03*
X138430000Y-87630000D03*
X138430000Y-85090000D03*
X138430000Y-82550000D03*
X138430000Y-80010000D03*
X138430000Y-77470000D03*
X138430000Y-74930000D03*
X138430000Y-72390000D03*
X138430000Y-69850000D03*
X138430000Y-67310000D03*
X138430000Y-64770000D03*
X138430000Y-62230000D03*
X138430000Y-59690000D03*
X138430000Y-57150000D03*
X138430000Y-54610000D03*
X135890000Y-57150000D03*
X125730000Y-100330000D03*
X128270000Y-100330000D03*
X130810000Y-100330000D03*
X133350000Y-100330000D03*
X135890000Y-100330000D03*
D29*
X126240800Y-60909200D03*
D30*
X126240800Y-63449200D03*
X126240800Y-65989200D03*
X126240800Y-68529200D03*
X126240800Y-71069200D03*
D31*
X135991600Y-67580000D03*
D32*
X133991600Y-67580000D03*
X131991600Y-67580000D03*
X131991600Y-69580000D03*
X133991600Y-69580000D03*
X135991600Y-69580000D03*
X132080000Y-55340000D03*
X129540000Y-55340000D03*
%TD*%
D24*
%TO.C,R15*%
X155495000Y-74930000D03*
X153670000Y-74930000D03*
%TD*%
M02*
